<svg xmlns="http://www.w3.org/2000/svg" direction="ltr" width="5782.000000000001" height="15130.914952781248" viewBox="-6589 636 5782.000000000001 15130.914952781248" stroke-linecap="round" stroke-linejoin="round" data-color-mode="light" class="tl-container tl-theme__force-sRGB tl-theme__light" style="background-color: transparent;"><defs/><g transform="matrix(1, 0, 0, 1, -6573, 652)" opacity="1"><path fill="#dce1f8" d="M 7 0 L 5743 0 Q 5750 0 5750 7 L 5750 15091.915 Q 5750 15098.915 5743 15098.915 L 7 15098.915 Q 0 15098.915 0 15091.915 L 0 7 Q 0 0 7 0"/><path stroke-width="3.5" d="M 7.7634 1.0591 L 5743.6412 -0.1249 Q 5750.6412 -0.1249 5750.6412 6.8751 L 5749.1264 15092.5887 Q 5749.1264 15099.5887 5742.1264 15099.5887 L 6.5089 15099.8468 Q -0.4911 15099.8468 -0.4911 15092.8468 L 0.7634 8.0591 Q 0.7634 1.0591 7.7634 1.0591 M 7.256 0.7013 L 5743.7724 -0.3723 Q 5750.7724 -0.3723 5750.7724 6.6277 L 5750.9177 15091.0879 Q 5750.9177 15098.0879 5743.9177 15098.0879 L 7.0875 15098.7864 Q 0.0875 15098.7864 0.0875 15091.7864 L 0.256 7.7013 Q 0.256 0.7013 7.256 0.7013" fill="none" stroke="#4465e9"/></g></svg>