<svg xmlns="http://www.w3.org/2000/svg" direction="ltr" width="5062" height="14976.311879249999" viewBox="-11731.49007015625 660.4574763906257 5062 14976.311879249999" stroke-linecap="round" stroke-linejoin="round" data-color-mode="light" class="tl-container tl-theme__force-sRGB tl-theme__light" style="background-color: transparent;"><defs/><g transform="matrix(1, 0, 0, 1, -11715.4901, 676.4575)" opacity="1"><path fill="#d3e9e3" d="M 7 0 L 5023 0 Q 5030 0 5030 7 L 5030 14937.3119 Q 5030 14944.3119 5023 14944.3119 L 7 14944.3119 Q 0 14944.3119 0 14937.3119 L 0 7 Q 0 0 7 0"/><path stroke-width="3.5" d="M 7.073 0.9519 L 5022.5018 0.3722 Q 5029.5018 0.3722 5029.5018 7.3722 L 5030.4647 14937.6642 Q 5030.4647 14944.6642 5023.4647 14944.6642 L 7.8358 14944.0141 Q 0.8358 14944.0141 0.8358 14937.0141 L 0.073 7.9519 Q 0.073 0.9519 7.073 0.9519 M 7.6548 0.7353 L 5022.6691 0.1252 Q 5029.6691 0.1252 5029.6691 7.1252 L 5029.913 14936.8202 Q 5029.913 14943.8202 5022.913 14943.8202 L 6.054 14944.9731 Q -0.946 14944.9731 -0.946 14937.9731 L 0.6548 7.7353 Q 0.6548 0.7353 7.6548 0.7353" fill="none" stroke="#099268"/></g></svg>